<svg xmlns="http://www.w3.org/2000/svg" viewBox="0 0 512 512">
  <path fill="#fff" d="M0 0h512v512H0z"/>
  <path fill="#ce1126" d="M0 0h170.7v512H0z"/>
  <path fill="#006847" d="M341.3 0H512v512H341.3z"/>
  <path fill="#8C9157" d="M284.1 181.3c-13.6-10-31.2-15.5-49.1-15.5-17.8 0-35.5 5.5-49.1 15.5-21.6 15.9-49.1 48.1-49.1 93.9 0 52.2 44 93.9 98.2 93.9s98.2-41.7 98.2-93.9c.1-45.8-27.4-78-49.1-93.9z"/>
  <path fill="#8C9157" d="M250 275.2c0 6.4-3.6 15.6-15 15.6 19 0 19 31.3 0 31.3 15.6 0 15-24.8 15-31.3 0-6.3-3.6-15.6-15-15.6 19.1 0 19.1-31.2 0-31.2 15.7 0 15 24.8 15 31.2z"/>
  <path fill="#8C9157" d="M180.7 275.2c0-6.4 3.6-15.6 15-15.6-19 0-19-31.2 0-31.2-15.7 0-15 24.8-15 31.2 0 6.4 3.6 15.6 15 15.6-19 0-19 31.3 0 31.3-15.7 0-15-24.8-15-31.3z"/>
  <path fill="#8C9157" d="M225 243.8c3.6 0 15 6.3 15 15.7-6.3-19 31.3-19 31.3 0-7 15.7-25 15-31.3 15-6.3 0-14.8 3.6-15 15 0-19-31.3-19-31.3 0 7 15.7 25 15 31.3 15z"/>
  <path fill="#8C9157" d="M225 306.5c-3.6 0-15-6.3-15-15.7 6.3 19-31.3 19-31.3 0 7-15.7 25-15 31.3-15 6.3 0 14.8-3.6 15-15 0 19 31.3 19 31.3 0-7-15.7-25-15-31.3-15z"/>
</svg> 