<svg xmlns="http://www.w3.org/2000/svg" viewBox="0 0 512 512">
  <path fill="#6da544" d="M0 0h512v512H0z"/>
  <path fill="#d80027" d="M196.6 0h315.4v512H196.6z"/>
  <circle cx="196.6" cy="256" r="96" fill="#ffda44"/>
  <path fill="#d80027" d="M196.6 160c-52.9 0-96 43-96 96s43.1 96 96 96c43.1 0 79.7-28.6 91.6-68h-91.6v-56h91.6c-11.9-39.4-48.5-68-91.6-68z"/>
  <path fill="#eee" d="M213.3 296.5h-33.4c0-30.6 16.7-33.4 16.7-50.1h-16.7c0-16.7 16.7-16.7 16.7-33.4 0-16.7-8.3-25-16.7-25h-8.3c-8.3 0-16.7 8.3-16.7 25 0 16.7 16.7 16.7 16.7 33.4h-16.7c0 16.7 16.7 19.5 16.7 50.1h-33.4c-4.2 0-8.3 4.2-8.3 8.3 0 4.2 4.2 8.3 8.3 8.3h75.1c4.2 0 8.3-4.2 8.3-8.3 0-4.1-4.1-8.3-8.3-8.3z"/>
</svg> 