<svg xmlns="http://www.w3.org/2000/svg" viewBox="0 0 512 512">
  <rect width="512" height="512" fill="#f0f0f0"/>
  <g fill="#d80027">
    <rect width="512" height="39.4" y="39.4"/>
    <rect width="512" height="39.4" y="118.2"/>
    <rect width="512" height="39.4" y="197"/>
    <rect width="512" height="39.4" y="275.8"/>
    <rect width="512" height="39.4" y="354.6"/>
    <rect width="512" height="39.4" y="433.4"/>
  </g>
  <rect width="275.8" height="275.8" fill="#2e52b2"/>
  <g fill="#f0f0f0">
    <path d="M30 28l3.1 9.5H43l-8 5.8 3 9.5-8-5.8-8.2 5.8 3.1-9.5-8-5.8h10z"/>
    <path d="M91.7 28l3.1 9.5h9.9l-8.1 5.8 3.1 9.5-8-5.8-8.1 5.8 3-9.5-8-5.8h10z"/>
    <path d="M153.3 28l3.1 9.5h10l-8.1 5.8 3 9.5-8-5.8-8 5.8 3-9.5-8.1-5.8h10z"/>
    <path d="M215 28l3.1 9.5h9.9l-8 5.8 3 9.5-8-5.8-8.1 5.8 3.1-9.5-8-5.8h9.9z"/>
    <path d="M61.3 68.4l3.1 9.5h10l-8.1 5.8 3 9.5-8-5.8-8 5.8 3-9.5-8.1-5.8h10z"/>
    <path d="M123 68.4l3.1 9.5h10l-8.1 5.8 3 9.5-8-5.8-8 5.8 3-9.5-8.1-5.8h10z"/>
    <path d="M184.7 68.4l3 9.5h10l-8 5.8 3 9.5-8-5.8-8.1 5.8 3-9.5-8-5.8h10z"/>
    <path d="M246.4 68.4l3 9.5h10l-8.1 5.8 3.1 9.5-8-5.8-8.1 5.8 3-9.5-8-5.8h10z"/>
    <path d="M30 108.8l3.1 9.5H43l-8 5.8 3 9.5-8-5.8-8.2 5.8 3.1-9.5-8-5.8h10z"/>
    <path d="M91.7 108.8l3.1 9.5h9.9l-8.1 5.8 3.1 9.5-8-5.8-8.1 5.8 3-9.5-8-5.8h10z"/>
    <path d="M153.3 108.8l3.1 9.5h10l-8.1 5.8 3 9.5-8-5.8-8 5.8 3-9.5-8.1-5.8h10z"/>
    <path d="M215 108.8l3.1 9.5h9.9l-8 5.8 3 9.5-8-5.8-8.1 5.8 3.1-9.5-8-5.8h9.9z"/>
    <path d="M61.3 149.2l3.1 9.5h10l-8.1 5.8 3 9.5-8-5.8-8 5.8 3-9.5-8.1-5.8h10z"/>
    <path d="M123 149.2l3.1 9.5h10l-8.1 5.8 3 9.5-8-5.8-8 5.8 3-9.5-8.1-5.8h10z"/>
    <path d="M184.7 149.2l3 9.5h10l-8 5.8 3 9.5-8-5.8-8.1 5.8 3-9.5-8-5.8h10z"/>
    <path d="M246.4 149.2l3 9.5h10l-8.1 5.8 3.1 9.5-8-5.8-8.1 5.8 3-9.5-8-5.8h10z"/>
    <path d="M30 189.6l3.1 9.5H43l-8 5.8 3 9.5-8-5.8-8.2 5.8 3.1-9.5-8-5.8h10z"/>
    <path d="M91.7 189.6l3.1 9.5h9.9l-8.1 5.8 3.1 9.5-8-5.8-8.1 5.8 3-9.5-8-5.8h10z"/>
    <path d="M153.3 189.6l3.1 9.5h10l-8.1 5.8 3 9.5-8-5.8-8 5.8 3-9.5-8.1-5.8h10z"/>
    <path d="M215 189.6l3.1 9.5h9.9l-8 5.8 3 9.5-8-5.8-8.1 5.8 3.1-9.5-8-5.8h9.9z"/>
    <path d="M61.3 229.9l3.1 9.5h10l-8.1 5.9 3 9.4-8-5.8-8 5.8 3-9.5-8.1-5.8h10z"/>
    <path d="M123 229.9l3.1 9.5h10l-8.1 5.9 3 9.4-8-5.8-8 5.8 3-9.5-8.1-5.8h10z"/>
    <path d="M184.7 229.9l3 9.5h10l-8 5.9 3 9.4-8-5.8-8.1 5.8 3-9.5-8-5.8h10z"/>
    <path d="M246.4 229.9l3 9.5h10l-8.1 5.9 3.1 9.4-8-5.8-8.1 5.8 3-9.5-8-5.8h10z"/>
  </g>
</svg> 